<?xml version="1.0" encoding="utf-8"?>
<!-- Generator: Adobe Illustrator 23.0.6, SVG Export Plug-In . SVG Version: 6.00 Build 0)  -->
<svg version="1.1" id="Logo" xmlns="http://www.w3.org/2000/svg" xmlns:xlink="http://www.w3.org/1999/xlink" x="0px" y="0px"
	 viewBox="0 0 200.1 126.2" style="enable-background:new 0 0 200.1 126.2;" xml:space="preserve">
<style type="text/css">
	.st0{fill:#FFFFFF;}
</style>
<g>
	<path class="st0" d="M100,126.2c2.1,0,4.1-0.5,6-1.6l21.9-12.6c4.4-2.5,9.5-3.6,14.6-3c26.6,3.1,45.2,8.1,50.7,9.7
		c1.1,0.3,2.4-0.1,3.1-1c0.9-1.1,2-2.9,2.9-5.5c0.8-2.5,0.9-4.6,0.8-6.1c-0.1-1.2-0.9-2.3-2.1-2.6c-8.6-2.5-46.7-12.8-97.9-12.8
		S10.7,101,2.1,103.5c-1.2,0.3-2,1.4-2.1,2.6c-0.1,1.4,0,3.5,0.8,6.1s2,4.4,2.9,5.5c0.7,0.9,2,1.3,3.1,1c5.5-1.6,24.2-6.6,50.7-9.7
		c5.1-0.6,10.2,0.5,14.6,3L94,124.6C95.9,125.7,97.9,126.2,100,126.2z"/>
	<path class="st0" d="M63.5,55.3c1.2,2.1,3.1,3.5,5.3,4.1c2.2,0.6,4.5,0.3,6.6-0.9c2.1-1.2,3.5-3.1,4.1-5.3c0.6-2.2,0.3-4.5-0.9-6.6
		L58.9,12.5c-0.6-1.1-1.9-1.5-3.1-1.4c-1.6,0.1-3.8,0.9-6.4,2.4s-4.4,3-5.3,4.3c-0.7,1-0.9,2.3-0.3,3.4L63.5,55.3z"/>
	<path class="st0" d="M45.5,79.7c2.1,1.2,4.5,1.4,6.6,0.9s4.1-2,5.3-4.1c1.2-2.1,1.4-4.5,0.9-6.6s-2-4.1-4.1-5.3L20.1,45
		c-1.1-0.6-2.4-0.4-3.4,0.3c-1.3,0.9-2.8,2.7-4.3,5.3c-1.5,2.6-2.3,4.8-2.4,6.4c-0.1,1.3,0.4,2.5,1.4,3.1L45.5,79.7z"/>
	<path class="st0" d="M108.7,43.2c0,2.4-1,4.6-2.5,6.2c-1.6,1.6-3.7,2.5-6.2,2.5s-4.6-1-6.2-2.5c-1.6-1.6-2.5-3.7-2.5-6.2V3.9
		c0-1.3,0.8-2.3,2-2.8C94.7,0.4,97,0,100,0s5.3,0.4,6.7,1.1c1.1,0.6,2,1.5,2,2.8V43.2z"/>
	<path class="st0" d="M136.5,55.3c-1.2,2.1-3.1,3.5-5.3,4.1s-4.5,0.3-6.6-0.9c-2.1-1.2-3.5-3.1-4.1-5.3c-0.6-2.2-0.3-4.5,0.9-6.6
		l19.7-34.1c0.6-1.1,1.9-1.5,3.1-1.4c1.6,0.1,3.8,0.9,6.4,2.4c2.6,1.5,4.4,3,5.3,4.3c0.7,1,0.9,2.3,0.3,3.4L136.5,55.3z"/>
	<path class="st0" d="M154.5,79.7c-2.1,1.2-4.5,1.4-6.6,0.9s-4.1-2-5.3-4.1c-1.2-2.1-1.4-4.5-0.9-6.6s2-4.1,4.1-5.3l34.1-19.7
		c1.1-0.6,2.4-0.4,3.4,0.3c1.3,0.9,2.8,2.7,4.3,5.3c1.5,2.6,2.3,4.8,2.4,6.4c0.1,1.3-0.4,2.5-1.4,3.1L154.5,79.7z"/>
</g>
</svg>
