<svg width="129" height="127" viewBox="0 0 129 127" fill="none" xmlns="http://www.w3.org/2000/svg">
<path d="M17.167 123.16L16.105 125.72C15.86 126.28 16.2684 126.84 16.8403 126.84C18.8826 126.84 23.539 126.76 31.218 126.84C42.1647 127 71.1653 124.76 78.2725 123.56C85.3797 122.36 94.7743 121 101.881 121.48C108.989 121.96 121.324 119.24 123.611 118.04C125.899 116.84 128.84 113.48 128.84 112.68C128.84 111.88 126.879 110.92 126.226 110.28" fill="#6D9FEB"/>
<path d="M0.828369 13.16C0.828369 13.16 11.9385 10.28 21.0063 9.71996C30.074 9.15996 52.621 8.43997 61.7705 8.35997C70.92 8.27997 49.6801 16.36 48.8632 16.36" fill="#6D9FEB"/>
<path d="M8.58929 23.08C7.28222 23.24 0.501797 14.36 0.828564 13.24C1.15533 12.04 25.8263 13.08 42.6548 10.68C59.4833 8.27997 79.0893 2.67997 90.6079 1.47997C102.126 0.27997 114.789 1.15997 115.115 1.47997C115.442 1.79997 111.276 9.63997 109.234 12.36C107.191 15.08 81.9485 28.04 81.9485 28.04" fill="#9DC0F2"/>
<path d="M8.58936 26.7598C8.58936 26.7598 7.44567 23.9598 8.58936 23.0798C9.73304 22.1998 36.6913 20.5198 46.2493 20.5198C55.8072 20.5198 76.3119 15.5598 87.8304 13.5598C99.349 11.4798 108.744 11.8798 109.234 12.3598C109.724 12.8398 109.969 18.1198 109.969 18.1198" fill="#6D9FEB"/>
<path d="M7.28223 29.1599C7.28223 30.0399 10.5499 52.4399 11.1217 61.8799C11.6936 71.3199 13.5725 89.3199 14.3894 100.76C15.288 112.28 15.1246 121.32 16.5134 122.76C17.9022 124.2 30.0743 123.24 45.514 122.76C61.0355 122.28 82.4387 118.04 95.2643 117.56C108.09 117.08 117.73 117.56 120.671 115.32C123.611 113.08 127.451 111.08 126.389 107.64C125.327 104.2 120.262 79.6399 120.997 73.2399C121.732 66.8399 116.994 43.6399 116.341 37.7999C115.606 32.0399 111.848 16.9999 111.276 15.9599C110.704 14.9199 91.9967 17.1599 83.9909 17.4799C75.9851 17.7999 52.6212 23.9599 37.5082 23.9599C22.3952 23.9599 11.9387 25.4799 10.0597 26.0399C8.18084 26.5999 7.36392 27.4799 7.28223 29.1599Z" fill="#9DC0F2"/>
<g opacity="0.3">
<path opacity="0.3" d="M58.8298 42.9998C58.3397 41.0798 56.2974 39.8797 54.3368 40.3597L17.8205 49.4798C17.3304 49.6398 17.0036 50.1198 17.167 50.5998L31.6265 106.12C31.7899 106.6 32.28 106.92 32.7702 106.76L69.2047 97.6398C71.1653 97.1598 72.3907 95.1598 71.9005 93.2398L58.8298 42.9998Z" fill="#5A489B"/>
<path opacity="0.3" d="M112.91 42.28L77.9458 31.56C76.4753 31.08 74.9232 31.88 74.433 33.32L73.371 36.68L71.6555 42.12L68.1427 53.1599C67.6526 54.5999 68.4695 56.1199 69.94 56.5999L104.904 67.3199C106.375 67.7999 107.927 66.9999 108.417 65.5599L113.727 49.0799L113.972 48.3599L114.789 45.72C115.197 44.28 114.38 42.76 112.91 42.28Z" fill="#5A489B"/>
<path opacity="0.3" d="M92.8953 100.68C100.971 100.68 107.518 94.2688 107.518 86.36C107.518 78.4513 100.971 72.04 92.8953 72.04C84.8193 72.04 78.2725 78.4513 78.2725 86.36C78.2725 94.2688 84.8193 100.68 92.8953 100.68Z" fill="#5A489B"/>
</g>
<path d="M67.3257 96.4399L30.8911 105.56C30.401 105.72 29.9108 105.4 29.7475 104.92L15.2063 49.3999C15.0429 48.9199 15.3697 48.4399 15.8599 48.2799L52.2944 39.1599C54.255 38.6799 56.2973 39.7999 56.7874 41.7999L69.8581 92.0399C70.43 93.9599 69.2863 95.9599 67.3257 96.4399Z" fill="#D1435B"/>
<path d="M67.3257 82.04L17.4937 57.96L29.6657 104.84C29.8291 105.32 30.3193 105.64 30.8094 105.48L67.244 96.36C69.2046 95.88 70.43 93.88 69.9398 91.9599L67.3257 82.04Z" fill="#8E243A"/>
<path d="M46.7395 86.5999C49.3536 85.9599 51.7226 84.5999 53.5199 82.9199C53.6016 82.9199 53.6016 82.8399 53.6833 82.7599C57.4411 79.1599 59.2383 73.6399 57.8495 68.2799C56.4608 62.8399 52.1311 58.8399 46.9845 57.4799H46.9028C44.4521 56.8399 41.8379 56.7599 39.1421 57.3999C36.9364 57.9599 34.8941 58.9999 33.2603 60.3599C33.1786 60.4399 33.0969 60.4399 33.0969 60.5199C28.7672 64.1199 26.6433 69.9599 28.1137 75.7199C30.156 83.7999 38.5703 88.6799 46.7395 86.5999ZM30.156 76.1999L33.5871 75.3199C34.404 78.3599 35.7111 81.3999 37.835 84.2799C34.2406 82.7599 31.3814 79.9599 30.156 76.1999ZM38.7337 59.4799L41.8379 71.3999L34.9758 73.0799C33.9138 67.7199 34.404 62.9199 34.5674 61.6399C35.7927 60.6799 37.1815 59.9599 38.7337 59.4799ZM46.1676 59.1599C48.6184 62.5999 50.0888 65.9599 51.0691 69.0799L43.6352 70.9199L40.5309 58.9999C42.4098 58.6799 44.3704 58.7599 46.1676 59.1599ZM47.1479 84.5999L44.0436 72.6799L51.4776 70.8399C52.7846 76.4399 52.2128 80.6799 52.0494 81.7999C50.7424 82.9999 49.0268 83.9599 47.1479 84.5999ZM42.2464 73.1599L45.3507 85.0799C43.7985 85.3199 42.3281 85.3999 40.8576 85.1599C40.7759 85.0799 40.7759 84.9999 40.6943 84.9199C37.835 81.9599 36.2829 78.3599 35.3843 74.9199L42.2464 73.1599ZM54.1734 79.3199C54.2551 77.1599 54.1734 74.0399 53.2748 70.3599L56.134 69.6399C56.8692 73.0799 56.0523 76.5199 54.1734 79.3199ZM55.7256 67.8799L52.8663 68.5999C52.0494 65.9599 50.9057 63.1599 49.1085 60.2799C52.2128 61.7999 54.6636 64.5199 55.7256 67.8799ZM32.5251 63.6399C32.3617 65.9599 32.3617 69.5599 33.1786 73.4799L29.7476 74.3599C28.9306 70.4399 30.0743 66.5999 32.5251 63.6399Z" fill="#FFB54D"/>
<path d="M60.9537 87.6398L53.5198 89.4798C53.0296 89.6398 52.7028 90.1198 52.8662 90.5998C53.0296 91.0798 53.5198 91.3998 54.0099 91.2398L61.4439 89.3998C61.934 89.2398 62.2608 88.7598 62.0974 88.2798C61.934 87.7998 61.4439 87.4798 60.9537 87.6398Z" fill="#FF9400"/>
<path d="M47.5564 89.64C46.3311 89.96 45.5958 91.16 45.9226 92.36C46.2494 93.56 47.4747 94.28 48.7001 93.96C49.9255 93.64 50.6607 92.44 50.334 91.24C49.9255 90.04 48.7001 89.32 47.5564 89.64Z" fill="#FF9400"/>
<path d="M41.266 92.5201L33.832 94.3601C33.3419 94.5201 33.0151 95.0001 33.1785 95.4801C33.3419 95.9601 33.832 96.2801 34.3222 96.1201L41.7561 94.2801C42.2463 94.1201 42.573 93.6401 42.4097 93.1601C42.2463 92.6801 41.7561 92.3601 41.266 92.5201Z" fill="#FF9400"/>
<path d="M55.6438 76.44C55.2354 77.48 54.8269 78.44 54.1734 79.32C54.2551 78.28 54.2551 77.08 54.0917 75.72L52.1311 74.76C52.5395 78.36 52.2128 81 52.0494 81.8C50.6606 83.08 49.0268 84.04 47.1479 84.6L44.0436 72.68L46.576 72.04L44.0436 70.84L43.6351 70.92L43.5534 70.52L41.3478 69.48L41.8379 71.32L34.9758 73C34.4857 70.44 34.3223 67.96 34.3223 66.04L32.4434 65.16C32.3617 67.4 32.525 70.36 33.0969 73.48L29.6658 74.36C29.0123 70.92 29.8292 67.56 31.6264 64.76L29.9926 63.96C27.7869 67.32 26.97 71.56 28.1137 75.72C30.2377 83.72 38.5702 88.6 46.8211 86.6C49.4353 85.96 51.8043 84.6 53.6015 82.92C53.6832 82.92 53.6832 82.84 53.7649 82.76C55.3988 81.16 56.6241 79.32 57.4411 77.16L55.6438 76.44ZM30.156 76.2L33.587 75.32C34.404 78.36 35.711 81.4 37.835 84.28C34.2406 82.76 31.3814 79.96 30.156 76.2ZM40.8576 85.08C40.7759 85 40.7759 84.92 40.6942 84.84C37.835 81.88 36.2829 78.28 35.3843 74.84L42.3281 73.08L45.4324 85C43.8802 85.32 42.3281 85.32 40.8576 85.08Z" fill="#FF9400"/>
<path d="M103.025 66.1198L68.0608 55.3998C66.5904 54.9198 65.7734 53.3998 66.2636 51.9598L72.6356 32.1198C73.1257 30.6798 74.6779 29.8798 76.1483 30.3598L111.112 41.0798C112.583 41.5598 113.4 43.0798 112.91 44.5198L106.538 64.3598C106.048 65.7998 104.495 66.5998 103.025 66.1198Z" fill="#0770E3"/>
<path d="M112.028 47.168L71.7197 34.8179L69.7439 41.0024L110.053 53.3525L112.028 47.168Z" fill="#444560"/>
<path d="M105.394 50.4395L99.5939 48.6795C99.1038 48.5195 98.8587 48.0395 99.0221 47.5595L99.6756 45.5596C99.839 45.0796 100.329 44.8396 100.819 44.9996L106.619 46.7596C107.11 46.9196 107.355 47.3995 107.191 47.8795L106.538 49.8795C106.374 50.3595 105.884 50.5995 105.394 50.4395Z" fill="#CDCDD7"/>
<path d="M79.9064 49.1597L72.309 46.8397C71.8189 46.6797 71.5738 46.1997 71.7372 45.7197C71.9006 45.2397 72.3907 44.9997 72.8809 45.1597L80.4782 47.4797C80.9684 47.6397 81.2134 48.1197 81.05 48.5997C80.8867 49.0797 80.3965 49.2397 79.9064 49.1597Z" fill="#084EB2"/>
<path d="M85.2162 55.7998L70.7568 51.3998C70.2666 51.2398 70.0215 50.7598 70.1849 50.2798C70.3483 49.7998 70.8385 49.5598 71.3286 49.7198L85.7881 54.1198C86.2782 54.2798 86.5233 54.7598 86.3599 55.2398C86.2782 55.6398 85.7064 55.8798 85.2162 55.7998Z" fill="#084EB2"/>
<path d="M95.3461 58.8398L90.5263 57.3998C90.0361 57.2398 89.7911 56.7598 89.9545 56.2798C90.1178 55.7998 90.608 55.5598 91.0982 55.7198L95.918 57.1598C96.4081 57.3198 96.6532 57.7998 96.4898 58.2798C96.3264 58.7598 95.8363 58.9998 95.3461 58.8398Z" fill="#084EB2"/>
<path d="M91.4247 98.1997C99.3202 98.1997 105.721 91.9317 105.721 84.1997C105.721 76.4677 99.3202 70.1997 91.4247 70.1997C83.5292 70.1997 77.1287 76.4677 77.1287 84.1997C77.1287 91.9317 83.5292 98.1997 91.4247 98.1997Z" fill="#00A698"/>
<path d="M98.4504 100.36C98.4504 100.36 98.1237 96.7597 96.8166 96.1197C95.5095 95.4797 93.3855 93.5598 93.3039 92.0398C93.2222 90.4398 95.0194 88.9198 96.2448 86.7597C97.4701 84.5997 99.2674 81.7198 97.7152 78.5998C96.1631 75.5598 87.8305 73.5598 85.8699 79.8798C83.9093 86.1998 87.5037 87.5598 86.1967 90.1998C84.8896 92.8398 82.5205 92.6798 82.5205 92.6798C82.5205 92.6798 78.4359 92.4398 77.2922 95.2398" fill="#D0EEEC"/>
<path opacity="0.25" d="M7.28223 29.1599C7.28223 30.0399 10.5499 52.4399 11.1217 61.8799C11.6936 71.3199 13.5725 89.3199 14.3894 100.76C15.288 112.28 15.1246 121.32 16.5134 122.76C17.9022 124.2 30.0743 123.24 45.514 122.76C61.0355 122.28 82.4387 118.04 95.2643 117.56C108.09 117.08 117.73 117.56 120.671 115.32C123.611 113.08 127.451 111.08 126.389 107.64C125.327 104.2 120.262 79.6399 120.997 73.2399C121.732 66.8399 116.994 43.6399 116.341 37.7999C115.606 32.0399 111.848 16.9999 111.276 15.9599C110.704 14.9199 91.9967 17.1599 83.9909 17.4799C75.9851 17.7999 52.6212 23.9599 37.5082 23.9599C22.3952 23.9599 11.9387 25.4799 10.0597 26.0399C8.18084 26.5999 7.36392 27.4799 7.28223 29.1599Z" fill="#9DC0F2"/>
<path d="M100.166 11.56C98.6955 11.8 97.7152 13.16 97.8786 14.6C98.3687 17.88 99.1857 23.88 99.8392 24.52C100.738 25.4 106.375 25 107.273 23.8C108.172 22.6 104.741 11.96 104.414 11.96C104.087 11.96 102.372 11.24 100.166 11.56Z" fill="white"/>
<path opacity="0.4" d="M17.167 42.1198C16.5952 42.4398 15.86 42.1198 15.7783 41.4798C15.3698 38.2798 14.4712 30.6798 14.8796 29.8798C15.3698 28.8398 37.6717 28.1998 40.4492 28.0398C43.3084 27.8798 30.4828 31.8798 27.6236 34.5998C25.3362 36.7598 19.7812 40.5198 17.167 42.1198Z" fill="white"/>
<path opacity="0.4" d="M20.7614 108.76C20.7614 108.76 20.4347 115 24.9277 117.72C29.4208 120.44 47.4747 119.08 49.1085 117.72C50.7423 116.36 34.6491 117 29.4208 112.92C24.1925 108.84 21.0882 104.44 20.7614 104.44C20.4347 104.44 20.7614 108.76 20.7614 108.76Z" fill="white"/>
<path opacity="0.2" d="M113.563 84.2002C113.563 84.2002 111.358 94.6802 104.414 100.6C97.4701 106.52 87.5037 109.72 84.5628 110.76C81.6219 111.8 111.521 109.72 115.116 105.72C118.71 101.64 115.279 93.7202 115.116 89.5602C114.952 85.4002 113.563 84.2002 113.563 84.2002Z" fill="white"/>
<path opacity="0.2" d="M10.2232 20.5202C10.2232 20.5202 6.46533 14.8402 6.46533 14.3602C6.46533 13.8802 24.0291 14.2802 24.7643 14.3602C25.4178 14.4402 20.7614 16.5202 17.167 18.2002C13.5725 19.8802 10.2232 20.5202 10.2232 20.5202Z" fill="white"/>
<path d="M100.411 20.5198C100.411 20.5198 100.738 22.9998 101.065 23.3998C101.473 23.7998 106.211 23.1598 106.293 22.5998C106.375 22.0398 105.803 19.3198 105.313 19.3198C104.904 19.3198 100.166 19.3998 100.411 20.5198Z" fill="#9DC0F2"/>
</svg>
