<svg width="128" height="160" viewBox="0 0 128 160" fill="none" xmlns="http://www.w3.org/2000/svg">
<path d="M62.8857 23.0386L59.8623 30.8993L60.467 31.504L62.8857 32.7133L66.5137 24.2479H65.909L65.3043 26.6666L61.6763 25.4573L62.8857 23.0386Z" fill="#FFE1B8"/>
<path d="M62.8856 23.0386L61.6763 25.4573L65.3043 26.6666L65.909 24.2479C65.3097 24.3623 64.6942 24.3623 64.0949 24.2479C63.6232 23.9198 63.2137 23.5103 62.8856 23.0386Z" fill="#FFDAB9"/>
<path d="M65.9091 15.1781C65.0618 15.3038 64.2631 15.6523 63.5946 16.1879C62.9262 16.7235 62.4119 17.427 62.1044 18.2265C61.7969 19.026 61.7072 19.8928 61.8445 20.7383C61.9818 21.5838 62.3411 22.3777 62.8858 23.0388C63.2138 23.5105 63.6234 23.92 64.0951 24.2481C64.6944 24.3625 65.3098 24.3625 65.9091 24.2481H66.5138C67.2656 24.1571 67.9856 23.8908 68.6158 23.4707C69.2459 23.0507 69.7686 22.4885 70.1418 21.8294C69.4776 21.6325 68.8635 21.2953 68.341 20.8405C67.8185 20.3857 67.3997 19.824 67.113 19.1933C66.8264 18.5627 66.6785 17.8779 66.6795 17.1851C66.6804 16.4924 66.8301 15.8079 67.1184 15.1781C66.7169 15.1275 66.3106 15.1275 65.9091 15.1781Z" fill="#FFE1B8"/>
<path d="M52.6063 17.5967L48.9783 19.4107L56.839 33.9228L60.467 32.1088L52.6063 17.5967Z" fill="#FFB54D"/>
<path d="M78.0024 32.1085L88.8865 36.3412L93.1192 26.0618L82.2351 21.8291L78.0024 32.1085ZM42.3269 36.9459L33.8615 44.2019L26.6055 35.7365L35.6755 28.4805L42.3269 36.9459Z" fill="#D1435B"/>
<path d="M53.8156 20.6196L50.7922 22.4336L53.8156 27.8757L56.8389 26.0617L53.8156 20.6196Z" fill="#FFA351"/>
<path d="M117.306 72.0168C118.977 81.8216 117.698 91.9018 113.629 100.978C109.561 110.054 102.888 117.717 94.4566 122.993C86.0254 128.27 76.2165 130.922 66.2751 130.614C56.3337 130.305 46.7081 127.049 38.6203 121.26C30.5326 115.471 24.3473 107.409 20.8497 98.0985C17.3521 88.7876 16.7 78.6473 18.9761 68.9651C21.2522 59.2828 26.3538 50.4952 33.6334 43.7177C40.913 36.9403 50.0423 32.4787 59.8623 30.8992C72.9236 28.7985 86.2861 31.9397 97.0435 39.6397C107.801 47.3397 115.083 58.9757 117.306 72.0168Z" fill="#0770E3"/>
<path d="M76.793 108.902C59.8623 116.158 42.3268 116.158 28.4194 110.111C35.2823 118.665 44.7582 124.736 55.398 127.395C66.0378 130.054 77.2556 129.155 87.3358 124.834C97.416 120.514 105.804 113.011 111.216 103.473C116.628 93.9346 118.767 82.8859 117.306 72.0167C117.003 70.182 116.599 68.3652 116.097 66.5747C112.469 84.1101 97.9565 100.436 76.793 108.902Z" fill="#084EB2"/>
<path d="M105.98 97.5687C115.718 76.685 106.683 51.8611 85.7995 42.1229C64.9159 32.3847 40.092 41.4199 30.3538 62.3035C20.6156 83.1872 29.6507 108.011 50.5344 117.749C71.418 127.487 96.242 118.452 105.98 97.5687Z" fill="#FFF5E9"/>
<path d="M57.4436 139.74H56.8389C55.6009 139.608 54.4454 139.057 53.5651 138.176C52.6848 137.296 52.133 136.14 52.0016 134.902L50.7922 125.832L64.6996 126.437L62.8856 135.507C62.6068 136.732 61.9124 137.824 60.9204 138.595C59.9284 139.367 58.6999 139.771 57.4436 139.74ZM97.3518 133.088C98.5759 132.675 99.613 131.84 100.278 130.732C100.942 129.624 101.191 128.316 100.98 127.042L99.1658 117.972L85.8631 122.809L90.0958 130.67C90.744 131.946 91.8691 132.916 93.2273 133.369C94.5855 133.822 96.0674 133.721 97.3518 133.088Z" fill="#084EB2"/>
<path d="M44.7457 25.457C45.3699 25.0091 45.8784 24.419 46.2292 23.7355C46.5801 23.0521 46.763 22.2949 46.763 21.5266C46.763 20.7584 46.5801 20.0012 46.2292 19.3177C45.8784 18.6342 45.3699 18.0441 44.7457 17.5963C41.0333 15.0159 36.6097 13.6554 32.0889 13.7038C27.5681 13.7521 23.1745 15.2068 19.5182 17.866C15.8619 20.5251 13.1242 24.2567 11.6853 28.5427C10.2465 32.8287 10.1778 37.4563 11.4888 41.7831C11.6975 42.5799 12.1062 43.3102 12.6762 43.9049C13.2461 44.4995 13.9585 44.9387 14.7458 45.181C15.533 45.4232 16.3691 45.4604 17.1748 45.289C17.9804 45.1177 18.729 44.7434 19.3495 44.2017L44.7457 25.457ZM70.7465 21.8289C69.8992 21.7032 69.1005 21.3547 68.432 20.8191C67.7636 20.2835 67.2493 19.58 66.9418 18.7805C66.6343 17.981 66.5446 17.1143 66.6819 16.2688C66.8192 15.4232 67.1785 14.6294 67.7231 13.9682C70.3377 10.0191 74.1689 7.03035 78.6356 5.45547C83.1023 3.88059 87.9608 3.80547 92.4741 5.24152C96.9874 6.67756 100.909 9.54639 103.645 13.4129C106.38 17.2793 107.78 21.9324 107.631 26.6663C107.692 27.4877 107.543 28.3111 107.196 29.0585C106.85 29.8058 106.319 30.4524 105.653 30.9369C104.986 31.4213 104.208 31.7277 103.39 31.8269C102.572 31.9261 101.743 31.8148 100.98 31.5037L70.7465 21.8289Z" fill="#FFB54D"/>
<path d="M23.5823 18.8055C21.7683 18.8055 18.7449 20.0148 16.3263 22.4335C13.3029 26.0615 12.0936 30.2942 14.5123 32.1082C15.0356 32.5007 15.6721 32.7129 16.3263 32.7129C18.7449 32.7129 21.1636 31.5035 23.5823 29.0848C26.6057 25.4568 27.815 21.2241 26.001 19.4101C25.664 19.1432 25.274 18.9511 24.8569 18.8469C24.4398 18.7426 24.0053 18.7285 23.5823 18.8055ZM81.6306 7.92139C79.49 7.98004 77.4034 8.60603 75.5839 9.7354C71.9559 12.1541 69.5372 15.7821 70.7466 18.2008L74.3746 19.4101C76.5152 19.3515 78.6019 18.7255 80.4213 17.5961C84.654 15.1774 86.468 11.5494 85.2587 9.13073C84.654 7.92139 83.4447 7.92139 81.6306 7.92139Z" fill="#FFC575"/>
<path d="M90.0959 44.2021C80.4211 76.2497 55.6297 97.4131 38.0942 108.297C42.1454 112.72 47.1025 116.217 52.6277 118.551C58.1529 120.884 64.1163 121.999 70.1113 121.82C76.1064 121.64 81.9922 120.17 87.3676 117.509C92.743 114.849 97.4817 111.06 101.261 106.403C105.039 101.745 107.77 96.3275 109.265 90.5192C110.761 84.7109 110.986 78.6484 109.927 72.745C108.867 66.8415 106.547 61.236 103.125 56.3103C99.7026 51.3847 95.2587 47.2548 90.0959 44.2021Z" fill="#FFEBD0"/>
<path d="M12.0935 42.3882C12.4378 43.2429 13.0191 43.9816 13.7689 44.5172C14.5187 45.0528 15.406 45.3631 16.3262 45.4115C15.406 45.3631 14.5187 45.0528 13.7689 44.5172C13.0191 43.9816 12.4378 43.2429 12.0935 42.3882ZM44.7457 17.5967C45.4875 18.0249 46.1023 18.6424 46.5272 19.3861C46.9522 20.1297 47.172 20.9729 47.1644 21.8294C47.172 20.9729 46.9522 20.1297 46.5272 19.3861C46.1023 18.6424 45.4875 18.0249 44.7457 17.5967Z" fill="#FFD7CD"/>
<path d="M34.4662 13.3638C33.8616 20.0151 30.8382 32.1085 11.4888 42.3879C11.8331 43.2427 12.4143 43.9813 13.1642 44.5169C13.914 45.0526 14.8012 45.3628 15.7215 45.4113H16.3261C17.4434 45.3697 18.5117 44.9423 19.3495 44.202L44.7456 25.4572C45.4046 25.084 45.9668 24.5613 46.3869 23.9311C46.807 23.301 47.0733 22.581 47.1643 21.8292C47.172 20.9727 46.9521 20.1295 46.5271 19.3858C46.1022 18.6422 45.4874 18.0247 44.7456 17.5965C43.6203 16.6708 42.4048 15.8605 41.1176 15.1778L35.6756 13.9684L34.4662 13.3638Z" fill="#FFA351"/>
<path d="M107.631 26.6665C107.637 27.356 107.495 28.0387 107.215 28.6688C106.935 29.2989 106.523 29.8619 106.008 30.32C105.493 30.778 104.885 31.1207 104.227 31.3249C103.568 31.529 102.874 31.5901 102.189 31.5039C102.874 31.5901 103.568 31.529 104.227 31.3249C104.885 31.1207 105.493 30.778 106.008 30.32C106.523 29.8619 106.935 29.2989 107.215 28.6688C107.495 28.0387 107.637 27.356 107.631 26.6665Z" fill="#FFD7CD"/>
<path d="M105.817 18.8057C99.1659 21.829 91.9099 23.0384 85.2585 23.0384C79.9693 22.9811 74.7004 22.3731 69.5371 21.2243C69.9135 21.4754 70.3198 21.6785 70.7464 21.829L100.98 31.5037C101.381 31.5543 101.788 31.5543 102.189 31.5037C102.873 31.5899 103.568 31.5289 104.227 31.3247C104.885 31.1205 105.493 30.7779 106.008 30.3198C106.523 29.8617 106.935 29.2988 107.215 28.6687C107.495 28.0386 107.637 27.3559 107.631 26.6664C107.522 23.956 106.906 21.29 105.817 18.8057Z" fill="#FFA351"/>
<path d="M62.8857 49.0398C62.7938 49.0928 62.6895 49.1208 62.5834 49.1208C62.4772 49.1208 62.373 49.0928 62.281 49.0398L61.0717 41.1791C61.032 41.0997 61.0083 41.0132 61.002 40.9246C60.9957 40.8361 61.0069 40.7472 61.035 40.6629C61.0631 40.5787 61.1075 40.5008 61.1656 40.4338C61.2238 40.3667 61.2946 40.3118 61.374 40.2721C61.4534 40.2324 61.5399 40.2087 61.6284 40.2024C61.717 40.1961 61.8059 40.2073 61.8901 40.2354C61.9744 40.2634 62.0522 40.3078 62.1193 40.366C62.1864 40.4242 62.2413 40.495 62.281 40.5744L64.095 48.4351C64.095 48.5955 64.0313 48.7493 63.9179 48.8627C63.8045 48.9761 63.6507 49.0398 63.4904 49.0398H62.8857ZM74.3744 118.577C74.2141 118.577 74.0603 118.513 73.9469 118.4C73.8335 118.286 73.7698 118.133 73.7698 117.972L72.5604 110.111C72.5604 109.951 72.6241 109.797 72.7375 109.684C72.8509 109.57 73.0047 109.507 73.1651 109.507C73.3255 109.507 73.4793 109.57 73.5927 109.684C73.7061 109.797 73.7698 109.951 73.7698 110.111L74.9791 117.972C74.9791 118.133 74.9154 118.286 74.802 118.4C74.6886 118.513 74.5348 118.577 74.3744 118.577ZM98.5612 76.8546C98.4009 76.8546 98.2471 76.7909 98.1337 76.6775C98.0203 76.5641 97.9566 76.4103 97.9566 76.2499C97.9566 76.0896 98.0203 75.9358 98.1337 75.8224C98.2471 75.709 98.4009 75.6453 98.5612 75.6453L106.422 74.4359C106.514 74.3828 106.618 74.3549 106.724 74.3549C106.83 74.3549 106.935 74.3828 107.027 74.4359C107.027 74.5963 106.963 74.7501 106.85 74.8635C106.736 74.9769 106.582 75.0406 106.422 75.0406L99.1659 76.8546H98.5612ZM29.6288 87.7387C29.4685 87.7387 29.3147 87.675 29.2013 87.5616C29.0879 87.4482 29.0242 87.2944 29.0242 87.134C29.0242 86.9736 29.0879 86.8198 29.2013 86.7064C29.3147 86.593 29.4685 86.5293 29.6288 86.5293L37.4896 85.32C37.6499 85.32 37.8037 85.3837 37.9171 85.4971C38.0305 85.6105 38.0942 85.7643 38.0942 85.9247C38.0942 86.085 38.0305 86.2388 37.9171 86.3522C37.8037 86.4656 37.6499 86.5293 37.4896 86.5293L29.6288 87.7387ZM48.3736 56.2958C48.2132 56.2958 48.0594 56.2321 47.946 56.1187C47.8327 56.0053 47.7689 55.8515 47.7689 55.6911L42.3269 49.6444C42.2467 49.4841 42.2335 49.2984 42.2902 49.1283C42.3469 48.9582 42.4689 48.8176 42.6292 48.7374C42.7896 48.6573 42.9753 48.6441 43.1454 48.7008C43.3155 48.7575 43.4561 48.8794 43.5363 49.0398L48.3736 55.0865C48.4267 55.1784 48.4546 55.2827 48.4546 55.3888C48.4546 55.495 48.4267 55.5992 48.3736 55.6911C48.4267 55.7831 48.4546 55.8873 48.4546 55.9935C48.4546 56.0996 48.4267 56.2039 48.3736 56.2958ZM93.1192 109.507C93.0273 109.56 92.923 109.588 92.8169 109.588C92.7107 109.588 92.6065 109.56 92.5145 109.507L87.6772 103.46C87.5576 103.46 87.4407 103.425 87.3412 103.358C87.2418 103.292 87.1643 103.197 87.1185 103.087C87.0728 102.976 87.0608 102.855 87.0841 102.737C87.1075 102.62 87.165 102.512 87.2496 102.428C87.3342 102.343 87.4419 102.286 87.5592 102.262C87.6765 102.239 87.7981 102.251 87.9086 102.297C88.0191 102.343 88.1135 102.42 88.1799 102.519C88.2464 102.619 88.2818 102.736 88.2818 102.855L93.7239 108.902C93.7769 108.994 93.8049 109.098 93.8049 109.204C93.8049 109.311 93.7769 109.415 93.7239 109.507C93.632 109.56 93.5277 109.588 93.4215 109.588C93.3154 109.588 93.2111 109.56 93.1192 109.507ZM92.5145 61.1332C92.3542 61.1332 92.2004 61.0695 92.087 60.9561C91.9736 60.8427 91.9099 60.6889 91.9099 60.5285C91.9099 60.3681 91.9736 60.2143 92.087 60.1009C92.2004 59.9875 92.3542 59.9238 92.5145 59.9238L98.5612 55.0865C98.7216 55.0063 98.9073 54.9931 99.0774 55.0498C99.2475 55.1065 99.3881 55.2284 99.4682 55.3888C99.5484 55.5492 99.5616 55.7348 99.5049 55.9049C99.4482 56.075 99.3263 56.2156 99.1659 56.2958L93.1192 61.1332C93.0273 61.1862 92.923 61.2142 92.8169 61.2142C92.7107 61.2142 92.6065 61.1862 92.5145 61.1332ZM38.6989 106.483C38.6458 106.392 38.6179 106.287 38.6179 106.181C38.6179 106.075 38.6458 105.971 38.6989 105.879C38.6458 105.787 38.6179 105.683 38.6179 105.576C38.6179 105.47 38.6458 105.366 38.6989 105.274L44.7456 100.437C44.8375 100.384 44.9418 100.356 45.0479 100.356C45.1541 100.356 45.2583 100.384 45.3503 100.437C45.4033 100.529 45.4313 100.633 45.4313 100.739C45.4313 100.845 45.4033 100.949 45.3503 101.041L39.3036 106.483C39.2116 106.537 39.1074 106.564 39.0012 106.564C38.8951 106.564 38.7908 106.537 38.6989 106.483ZM39.3036 68.3892L32.0475 65.3659C31.9944 65.2739 31.9665 65.1697 31.9665 65.0635C31.9665 64.9574 31.9944 64.8531 32.0475 64.7612L39.3036 67.1799C39.4639 67.1799 39.6177 67.2436 39.7311 67.357C39.8445 67.4704 39.9082 67.6242 39.9082 67.7845C39.9082 67.9449 39.8445 68.0987 39.7311 68.2121C39.6177 68.3255 39.4639 68.3892 39.3036 68.3892ZM104.608 94.39C104.516 94.4431 104.412 94.471 104.306 94.471C104.199 94.471 104.095 94.4431 104.003 94.39L96.7472 91.3667C96.7472 91.2063 96.8109 91.0525 96.9243 90.9391C97.0377 90.8257 97.1915 90.762 97.3519 90.762L104.608 93.1807C104.768 93.1005 104.954 93.0873 105.124 93.144C105.294 93.2007 105.435 93.3227 105.515 93.483C105.595 93.6434 105.608 93.829 105.552 93.9991C105.495 94.1692 105.373 94.3099 105.213 94.39C105.121 94.4431 105.016 94.471 104.91 94.471C104.804 94.471 104.7 94.4431 104.608 94.39ZM81.0258 52.0631C80.8654 52.0631 80.7116 51.9994 80.5982 51.886C80.4848 51.7726 80.4211 51.6188 80.4211 51.4585L83.4445 44.2024C83.4445 44.042 83.5082 43.8882 83.6216 43.7748C83.735 43.6614 83.8888 43.5977 84.0492 43.5977C84.2095 43.5977 84.3633 43.6614 84.4767 43.7748C84.5901 43.8882 84.6538 44.042 84.6538 44.2024L81.6305 51.4585C81.6305 51.6188 81.5668 51.7726 81.4534 51.886C81.34 51.9994 81.1862 52.0631 81.0258 52.0631ZM55.025 117.368C54.8646 117.448 54.679 117.461 54.5089 117.404C54.3388 117.347 54.1982 117.226 54.118 117.065C54.0378 116.905 54.0246 116.719 54.0813 116.549C54.138 116.379 54.2599 116.238 54.4203 116.158L57.4437 108.902C57.4834 108.823 57.5383 108.752 57.6054 108.694C57.6725 108.636 57.7503 108.591 57.8346 108.563C57.9188 108.535 58.0077 108.524 58.0963 108.53C58.1848 108.536 58.2713 108.56 58.3507 108.6C58.4301 108.639 58.5009 108.694 58.5591 108.762C58.6172 108.829 58.6616 108.906 58.6897 108.991C58.7178 109.075 58.729 109.164 58.7227 109.252C58.7164 109.341 58.6927 109.427 58.653 109.507L55.6297 116.763C55.6297 116.923 55.566 117.077 55.4526 117.19C55.3392 117.304 55.1854 117.368 55.025 117.368Z" fill="#FF7B59"/>
<path d="M65.3043 80.482L57.4436 70.8073C57.4833 70.7279 57.507 70.6414 57.5133 70.5529C57.5196 70.4643 57.5083 70.3754 57.4803 70.2912C57.4522 70.207 57.4078 70.1291 57.3496 70.062C57.2915 69.995 57.2207 69.94 57.1413 69.9003C57.0619 69.8606 56.9754 69.8369 56.8869 69.8306C56.7983 69.8243 56.7094 69.8356 56.6251 69.8636C56.5409 69.8917 56.463 69.9361 56.396 69.9943C56.3289 70.0524 56.274 70.1232 56.2343 70.2026C56.2343 70.363 56.1706 70.5168 56.0572 70.6302C55.9438 70.7436 55.79 70.8073 55.6296 70.8073C55.4692 70.8073 55.3154 70.7436 55.202 70.6302C55.0886 70.5168 55.0249 70.363 55.0249 70.2026L54.4202 64.7606C54.3401 64.6002 54.3269 64.4146 54.3836 64.2445C54.4403 64.0744 54.5622 63.9338 54.7226 63.8536C54.883 63.7734 55.0686 63.7602 55.2387 63.8169C55.4088 63.8736 55.5494 63.9956 55.6296 64.1559L59.8623 65.9699C60.0226 65.8898 60.2083 65.8766 60.3784 65.9333C60.5485 65.99 60.6891 66.1119 60.7693 66.2723C60.8495 66.4326 60.8627 66.6183 60.806 66.7884C60.7493 66.9585 60.6273 67.0991 60.4669 67.1793L59.8623 67.784C59.7019 67.784 59.5481 67.8477 59.4347 67.9611C59.3213 68.0745 59.2576 68.2283 59.2576 68.3886C59.2576 68.549 59.3213 68.7028 59.4347 68.8162C59.5481 68.9296 59.7019 68.9933 59.8623 68.9933L67.723 78.668C67.8834 78.668 68.0372 78.7317 68.1506 78.8451C68.264 78.9585 68.3277 79.1123 68.3277 79.2727C68.3277 79.4331 68.264 79.5869 68.1506 79.7003C68.0372 79.8137 67.8834 79.8774 67.723 79.8774L66.5137 80.482C66.5137 80.6424 66.4499 80.7962 66.3365 80.9096C66.2232 81.023 66.0693 81.0867 65.909 81.0867C65.7486 81.0867 65.5948 81.023 65.4814 80.9096C65.368 80.7962 65.3043 80.6424 65.3043 80.482Z" fill="#9B2C43"/>
<path d="M66.5136 79.2733L63.4902 59.3192C63.6506 59.1588 63.7407 58.9413 63.7407 58.7145C63.7407 58.4877 63.6506 58.2702 63.4902 58.1099C63.3298 57.9495 63.1123 57.8594 62.8855 57.8594C62.6587 57.8594 62.4412 57.9495 62.2809 58.1099C62.1205 58.19 61.9348 58.2032 61.7648 58.1465C61.5947 58.0898 61.454 57.9679 61.3739 57.8075C61.2937 57.6472 61.2805 57.4615 61.3372 57.2914C61.3939 57.1213 61.5158 56.9807 61.6762 56.9005L63.4902 52.6678C63.41 52.5075 63.3968 52.3218 63.4535 52.1517C63.5102 51.9816 63.6322 51.841 63.7925 51.7608C63.9529 51.6806 64.1386 51.6674 64.3087 51.7241C64.4788 51.7808 64.6194 51.9028 64.6995 52.0632L67.7229 56.2959C67.8833 56.376 68.0052 56.5166 68.0619 56.6867C68.1186 56.8568 68.1054 57.0425 68.0252 57.2029C67.945 57.3632 67.8044 57.4852 67.6343 57.5419C67.4642 57.5986 67.2786 57.5854 67.1182 57.5052C66.9579 57.3448 66.7404 57.2547 66.5136 57.2547C66.2868 57.2547 66.0693 57.3448 65.9089 57.5052C65.7485 57.6656 65.6584 57.8831 65.6584 58.1099C65.6584 58.3367 65.7485 58.5542 65.9089 58.7145L69.5369 78.6686C69.6163 78.7481 69.6793 78.8423 69.7223 78.9461C69.7653 79.0498 69.7874 79.161 69.7874 79.2733C69.7874 79.3856 69.7653 79.4968 69.7223 79.6006C69.6793 79.7043 69.6163 79.7986 69.5369 79.878C69.4575 79.9574 69.3632 80.0204 69.2595 80.0634C69.1557 80.1063 69.0445 80.1284 68.9322 80.1284C68.8199 80.1284 68.7087 80.1063 68.605 80.0634C68.5012 80.0204 68.407 79.9574 68.3276 79.878H67.7229C67.6427 80.0384 67.5021 80.1603 67.332 80.217C67.1619 80.2737 66.9763 80.2605 66.8159 80.1803C66.6555 80.1001 66.5336 79.9595 66.4769 79.7894C66.4202 79.6193 66.4334 79.4337 66.5136 79.2733Z" fill="#9B2C43"/>
<path d="M73.165 79.8775C73.397 80.8239 73.3378 81.8184 72.9951 82.7306C72.6524 83.6428 72.0421 84.4302 71.2443 84.9898C70.4465 85.5493 69.4982 85.8548 68.5238 85.8663C67.5494 85.8778 66.5943 85.5947 65.7835 85.0542C64.9727 84.5137 64.344 83.7408 63.9799 82.837C63.6157 81.9331 63.533 80.9403 63.7427 79.9887C63.9523 79.037 64.4444 78.1708 65.1547 77.5036C65.8649 76.8364 66.7601 76.3993 67.723 76.2494C68.9195 76.0632 70.1424 76.3326 71.15 77.0043C72.1576 77.6761 72.8766 78.7013 73.165 79.8775Z" fill="#D1435B"/>
<path d="M56.2342 18.8057C56.7008 19.6373 56.9112 20.5882 56.8391 21.5389C56.7669 22.4897 56.4153 23.398 55.8286 24.1496C55.2418 24.9012 54.446 25.4626 53.5411 25.7633C52.6363 26.064 51.6627 26.0906 50.7428 25.8397C49.8229 25.5888 48.9976 25.0717 48.3707 24.3532C47.7438 23.6347 47.3432 22.747 47.2193 21.8016C47.0953 20.8562 47.2536 19.8952 47.6741 19.0394C48.0946 18.1836 48.7587 17.4712 49.5828 16.9917C50.1374 16.669 50.7506 16.4599 51.3868 16.3765C52.023 16.2931 52.6694 16.3371 53.2884 16.5059C53.9074 16.6747 54.4866 16.965 54.9924 17.3598C55.4981 17.7547 55.9203 18.2461 56.2342 18.8057Z" fill="#FFB54D"/>
<path d="M71.3509 147.601C50.7922 147.601 34.4661 150.019 34.4661 153.647C34.4661 157.275 50.7922 159.089 71.3509 159.089C91.9097 159.089 107.631 156.671 107.631 153.647C107.631 150.624 91.3051 147.601 71.3509 147.601Z" fill="#E6EFFB"/>
<path d="M5.44203 27.8756C5.28166 27.8756 5.12786 27.8119 5.01447 27.6985C4.90107 27.5851 4.83736 27.4313 4.83736 27.2709C5.44203 19.4102 12.0934 15.1775 12.6981 15.1775C12.8584 15.0973 13.0441 15.0841 13.2142 15.1408C13.3843 15.1975 13.5249 15.3195 13.6051 15.4798C13.6853 15.6402 13.6985 15.8258 13.6418 15.9959C13.5851 16.166 13.4631 16.3066 13.3027 16.3868C12.6981 16.3868 6.65137 20.0149 6.0467 27.2709C6.0467 27.4313 5.983 27.5851 5.8696 27.6985C5.7562 27.8119 5.6024 27.8756 5.44203 27.8756ZM0.60467 27.8756C0.444302 27.8756 0.290501 27.8119 0.177103 27.6985C0.0637057 27.5851 0 27.4313 0 27.2709C0.60467 16.9915 9.07005 11.5495 9.07005 10.9448C9.23042 10.7844 9.44793 10.6943 9.67472 10.6943C9.90152 10.6943 10.119 10.7844 10.2794 10.9448C10.4398 11.1052 10.5299 11.3227 10.5299 11.5495C10.5299 11.7763 10.4398 11.9938 10.2794 12.1541C9.67472 12.1541 1.81401 17.5962 1.20934 27.2709C1.20934 27.4313 1.14563 27.5851 1.03224 27.6985C0.918839 27.8119 0.765039 27.8756 0.60467 27.8756Z" fill="#CDDFF8"/>
<path d="M114.283 9.13114C113.933 9.44127 113.716 9.87451 113.678 10.3405C113.828 10.5873 114.036 10.7947 114.283 10.9451C114.593 11.295 115.026 11.5116 115.492 11.5498C115.958 11.5116 116.391 11.295 116.701 10.9451L120.934 4.89845C120.987 4.80652 121.015 4.70225 121.015 4.59611C121.015 4.48997 120.987 4.3857 120.934 4.29378C120.762 4.06459 120.558 3.861 120.329 3.68911C119.977 3.39884 119.564 3.19211 119.12 3.08444C119.028 3.03136 118.924 3.00342 118.818 3.00342C118.711 3.00342 118.607 3.03136 118.515 3.08444L114.283 9.13114ZM108.841 7.9218C108.702 8.31304 108.702 8.73989 108.841 9.13114C109.151 9.48101 109.584 9.69763 110.05 9.73581C110.531 9.73581 110.992 9.54469 111.333 9.2045C111.673 8.8643 111.864 8.4029 111.864 7.9218L112.469 1.27042C112.522 1.1785 112.55 1.07423 112.55 0.968089C112.55 0.861948 112.522 0.757676 112.469 0.665754C112.116 0.375487 111.703 0.168762 111.259 0.0610841C110.86 -0.0203614 110.449 -0.0203614 110.05 0.0610841C109.89 0.0610841 109.736 0.12479 109.622 0.238188C109.509 0.351586 109.445 0.505386 109.445 0.665754L108.841 7.9218ZM119.725 15.7825C119.386 15.9442 119.006 15.9969 118.636 15.9335C118.266 15.8701 117.925 15.6936 117.66 15.4283C117.395 15.163 117.218 14.8221 117.155 14.4524C117.092 14.0826 117.144 13.7023 117.306 13.3638C117.456 13.117 117.664 12.9096 117.911 12.7592L124.562 9.73581C124.654 9.68274 124.758 9.6548 124.864 9.6548C124.97 9.6548 125.075 9.68274 125.167 9.73581C125.457 10.0881 125.664 10.5016 125.771 10.9451C126.062 11.2974 126.268 11.7109 126.376 12.1545C126.376 12.3149 126.312 12.4687 126.199 12.5821C126.085 12.6955 125.932 12.7592 125.771 12.7592L119.725 15.7825ZM119.725 21.2245C119.259 21.1864 118.825 20.9697 118.515 20.6199C118.165 20.3097 117.949 19.8765 117.911 19.4105C118.041 19.0396 118.288 18.7211 118.616 18.5029C118.943 18.2848 119.332 18.1789 119.725 18.2012L126.981 18.8059C127.141 18.8059 127.295 18.8696 127.408 18.983C127.522 19.0964 127.585 19.2502 127.585 19.4105C127.667 19.8095 127.667 20.2209 127.585 20.6199C127.478 21.0635 127.271 21.4769 126.981 21.8292L119.725 21.2245ZM116.701 26.0619C116.351 25.7518 116.135 25.3185 116.097 24.8526C116.164 24.6063 116.282 24.377 116.444 24.1796C116.606 23.9822 116.807 23.8212 117.036 23.7071C117.264 23.5929 117.514 23.5282 117.769 23.5172C118.024 23.5062 118.278 23.5492 118.515 23.6432L124.562 27.8759C124.615 27.9678 124.643 28.0721 124.643 28.1782C124.643 28.2844 124.615 28.3887 124.562 28.4806C124.39 28.7098 124.187 28.9134 123.957 29.0853C123.85 29.5288 123.643 29.9423 123.353 30.2946C123.261 30.3477 123.156 30.3756 123.05 30.3756C122.944 30.3756 122.84 30.3477 122.748 30.2946L116.701 26.0619Z" fill="#FFB54D"/>
</svg>
