<svg width="121" height="146" viewBox="0 0 121 146" fill="none" xmlns="http://www.w3.org/2000/svg">
<path d="M52.3322 136.829C47.3828 136.829 42.4285 136.871 37.4838 137.205C33.0536 137.5 28.7281 138.757 24.3503 139.086C13.1127 139.929 6.2959 140.005 6.2959 141.419C6.2959 144.5 24.3027 144.895 26.0795 145.019C36.5882 145.757 47.1065 146 57.6247 146C68.2382 146 78.8755 145.862 89.4652 145.5C91.8471 145.419 94.0384 144.662 96.3916 144.424C104.218 143.619 108.958 142.567 108.958 141.419C108.958 138.186 88.5315 137.752 86.5689 137.61C86.2307 137.61 85.8543 137.581 85.4446 137.581C84.0155 137.581 82.1482 137.695 80.2808 137.81C78.4134 137.924 76.5365 138.033 75.0407 138.033C74.7422 138.033 74.4564 138.033 74.1833 138.033C68.6622 137.833 63.1887 136.829 57.6533 136.829H52.3322Z" fill="#E6EFFB"/>
<mask id="mask0" mask-type="alpha" maskUnits="userSpaceOnUse" x="0" y="0" width="122" height="117">
<path d="M0.0560028 60.86C-1.36834 28.7068 24.5509 1.48712 57.9206 0.0585125C91.2902 -1.37009 119.52 23.5353 120.944 55.6884C122.369 87.8416 96.4827 115.061 63.0797 116.49C29.6766 117.918 1.48035 93.0083 0.0560028 60.86Z" fill="#6D9FEB"/>
</mask>
<g mask="url(#mask0)">
<path d="M0.0560028 60.86C-1.36834 28.7068 24.5509 1.48712 57.9206 0.0585125C91.2902 -1.37009 119.52 23.5353 120.944 55.6884C122.369 87.8416 96.4827 115.061 63.0797 116.49C29.6766 117.918 1.48035 93.0083 0.0560028 60.86Z" fill="#6D9FEB"/>
<path d="M70.1823 37.007L69.02 34.0212L66.924 33.2593C66.924 33.2593 64.7898 34.4403 64.9565 35.2879C65.1233 36.1355 65.6711 39.7499 65.6711 39.7499C65.8683 40.4981 65.9455 41.2728 65.8998 42.0452C65.8283 43.3833 68.0482 44.0167 68.5484 43.7548C69.0486 43.4929 70.3252 43.1928 70.6873 42.569C71.0493 41.9452 72.002 40.3261 71.6019 39.9785C71.1639 39.6202 70.7957 39.1844 70.5158 38.6927C70.3671 38.1389 70.2557 37.5757 70.1823 37.007Z" fill="#73CEC6"/>
<path d="M63.6128 38.1356C63.6128 38.1356 61.231 37.5118 60.7784 37.8928C60.3259 38.2737 59.3779 38.0737 59.4303 39.288C59.4827 40.5024 59.8638 41.0881 60.2306 41.4405C60.5974 41.7929 62.7363 42.1834 62.7363 42.1834L64.3179 40.7786L63.6128 38.1356Z" fill="#73CEC6"/>
<path d="M68.2291 46.1502L63.032 45.7264C62.7628 45.7062 62.4927 45.7506 62.2441 45.8558C61.9956 45.961 61.7757 46.1239 61.6029 46.3312L60.2214 47.9455C59.9791 48.2307 59.8237 48.5794 59.7736 48.9503L59.6354 49.9312C59.5887 50.2892 59.6346 50.6532 59.7688 50.9884L60.2023 52.0503C60.3372 52.4071 60.5831 52.7112 60.9039 52.9178C61.2246 53.1244 61.6032 53.2226 61.9839 53.198L63.0891 53.098C63.4205 53.0719 63.7521 53.1448 64.0419 53.3075C64.4896 53.5647 65.0613 54.0028 64.9946 54.5695C64.9576 56.6193 65.0499 58.6694 65.2709 60.7077C65.4662 62.2696 67.1383 65.0792 67.7861 65.184C68.434 65.2888 72.164 65.2602 72.7832 64.7078C73.4025 64.1554 77.3564 63.3363 77.7089 62.5363V62.5077C77.8193 62.2396 77.9964 62.004 78.2233 61.8233C78.4501 61.6426 78.7194 61.5228 79.0055 61.4751C79.2917 61.4274 79.5853 61.4535 79.8585 61.5509C80.1318 61.6482 80.3757 61.8137 80.5671 62.0315C81.6818 63.222 83.0585 64.6506 83.3586 64.784C83.8827 65.0268 86.9266 63.9792 87.3125 63.9601C87.6984 63.9411 92.4525 63.7411 92.7526 64.6459C93.0528 65.5507 96.4874 64.7506 96.3826 62.3982C96.2778 60.0458 96.6351 59.3743 96.4397 57.8124C96.4133 57.6199 96.4053 57.4254 96.4159 57.2314C96.4207 56.9801 96.4783 56.7325 96.5848 56.5048C96.6914 56.2771 96.8446 56.0743 97.0346 55.9095C97.2245 55.7448 97.447 55.6218 97.6875 55.5484C97.9281 55.4751 98.1814 55.453 98.431 55.4838C99.7981 55.6981 101.899 56.0076 102.409 55.9838C103.052 55.96 104.314 59.6553 104.71 60.8696C104.788 61.1204 104.918 61.3523 105.091 61.5506C105.91 62.503 108.382 65.3602 108.501 65.6745C108.621 65.9888 111.569 65.9792 113.175 65.9697C113.489 65.9623 113.795 65.8698 114.061 65.7021C114.327 65.5344 114.543 65.2977 114.685 65.0173L116.847 61.022C117.048 60.6472 117.126 60.2194 117.071 59.7981C116.862 58.2267 116.342 54.3314 116.219 53.8171C116.095 53.3028 116.038 49.1979 116.014 47.1502C116.005 46.8074 116.089 46.4684 116.256 46.1692C116.424 45.87 116.669 45.6216 116.966 45.4502L126.599 39.9596C126.66 39.9212 126.726 39.8893 126.794 39.8643L128.814 39.0357C129.052 38.9273 129.265 38.7725 129.442 38.5804C129.62 38.3883 129.756 38.1627 129.845 37.917C129.934 37.6712 129.973 37.4103 129.959 37.1494C129.946 36.8884 129.88 36.6329 129.767 36.3976C127.189 30.8879 118.953 14.8066 107.501 7.11118C107.235 6.93021 106.922 6.8294 106.601 6.8207L98.5596 6.62069C98.2123 6.6173 97.8718 6.71741 97.5817 6.90824C97.2915 7.09907 97.0648 7.37197 96.9304 7.69214C96.1682 9.40647 94.7439 12.5399 94.4723 12.7399L91.1378 15.1876C90.9622 15.3206 90.7611 15.4163 90.5471 15.4685C89.8087 15.6495 88.0699 16.0162 88.0461 15.5019C88.0223 14.9876 86.8266 14.278 86.0835 13.8399C85.733 13.6303 85.3179 13.5558 84.9164 13.6304C83.3396 13.9351 79.1618 14.7542 78.7569 14.9828C78.252 15.2685 73.3454 20.6972 73.1262 21.6496C72.9734 23.2942 72.9082 24.9458 72.9309 26.5974C72.9187 26.8467 72.9571 27.0959 73.0439 27.33C73.1307 27.5641 73.2641 27.7782 73.4359 27.9593C73.6078 28.1404 73.8146 28.2849 74.0438 28.3839C74.273 28.4829 74.52 28.5345 74.7697 28.5355C77.3897 28.4498 81.9152 28.2641 82.1677 28.0593C83.0431 27.4302 83.8725 26.7396 84.6496 25.9926C85.0545 25.5164 86.7313 24.6354 87.8222 24.0878C88.1116 23.9405 88.4373 23.8801 88.7603 23.9139C89.0832 23.9477 89.3894 24.0743 89.642 24.2783L93.1004 27.0117C93.4053 27.2617 93.6295 27.5963 93.7447 27.9733C93.86 28.3503 93.8612 28.753 93.7483 29.1308L92.9861 31.7641C92.931 31.9625 92.8441 32.1507 92.7288 32.3213L90.6185 35.4214C90.3839 35.776 90.0284 36.0332 89.6181 36.1452L87.4316 36.6785C87.3226 36.7076 87.2108 36.7251 87.0981 36.7309L78.5235 37.2071C78.111 37.2406 77.7224 37.4143 77.4225 37.6994C77.1226 37.9845 76.9294 38.3637 76.8752 38.7738C76.6228 40.3643 76.2369 42.7596 76.1083 43.612C75.9225 44.8264 71.5637 45.774 70.8921 45.9121C70.8358 45.9263 70.7784 45.9358 70.7206 45.9407L68.515 46.1502C68.4168 46.1598 68.3178 46.1598 68.2196 46.1502" fill="#73CEC6"/>
<path d="M52.38 19.2211C52.38 19.2211 48.1165 18.8783 47.6163 19.2926C47.1161 19.7069 44.9534 23.2022 44.9534 23.2022C44.9534 23.2022 44.296 25.7213 45.001 27.1308C45.706 28.5404 49.4074 30.7357 49.6408 30.2023C49.8743 29.669 51.1557 29.4833 52.7658 28.1071C53.7176 27.2291 54.7129 26.3995 55.7479 25.6213C56.7483 24.926 59.3016 24.426 59.5112 23.3688C59.7208 22.3117 60.0686 21.3783 58.9872 20.2497C57.9058 19.1211 52.38 19.2211 52.38 19.2211Z" fill="#73CEC6"/>
<path d="M37.0888 14.1114L36.136 13.2352C36.136 13.2352 32.992 14.9447 32.6299 15.4829C32.2679 16.021 30.4767 16.2305 29.705 16.2638C28.9333 16.2972 27.3232 14.4019 26.5991 12.9923C25.875 11.5828 26.1227 10.7875 24.4364 10.7256C22.75 10.6637 23.3979 10.5065 21.8687 10.8351C20.3396 11.1637 20.6254 11.7875 19.2964 10.9447C18.0867 10.1583 16.9683 9.23997 15.9618 8.20649C14.7835 7.0185 13.7359 5.70783 12.8368 4.29688C12.8368 4.29688 -6.64196 20.8401 -5.01754 48.7884L-1.50669 58.3124C-1.50669 58.3124 0.665549 57.9601 0.46071 56.2648C0.255871 54.5695 0.0653248 53.1409 0.551221 52.4552C1.03712 51.7694 4.55749 49.9313 4.55749 49.9313L7.09654 49.036C7.09654 49.036 11.0885 49.1265 11.9793 48.8265C12.8701 48.5265 14.7804 48.1836 15.1186 47.1217C15.4568 46.0598 16.4905 43.1359 17.0241 43.1121C17.5576 43.0883 24.908 43.8264 24.908 43.8264C24.908 43.8264 34.2829 46.1741 33.959 42.2597C33.6351 38.3453 34.2686 37.6643 33.3921 35.2119C32.5156 32.7595 35.774 27.7831 35.774 27.7831L40.1185 21.4401C40.1185 21.4401 40.6329 18.5401 40.1185 18.0401C39.604 17.54 36.9363 13.0733 37.0888 14.1114Z" fill="#73CEC6"/>
<path d="M-1.22097 64.8982C-1.22097 64.8982 -2.10702 65.1792 -2.17371 67.1268C-2.2404 69.0745 -1.2686 90.4036 33.2825 111.89C33.2825 111.89 34.1066 110.152 33.9541 109.552C33.8017 108.952 34.1447 105.171 32.525 103.785C30.9054 102.399 29.7478 102.204 27.8852 100.823C26.0226 99.4419 25.1223 99.4847 25.0556 97.9085C24.9889 96.3323 25.7606 93.5084 26.618 92.4989C27.4755 91.4893 33.735 87.5797 33.735 87.5797C33.735 87.5797 35.893 83.9653 35.7167 82.8796C35.5405 81.7938 35.7167 79.6033 35.5214 78.5176C35.3261 77.4318 34.5687 71.3745 33.5111 70.8317C32.4536 70.2888 29.3286 63.6029 27.6756 64.1648C26.0226 64.7268 20.9588 66.5173 19.4296 66.8221C17.9005 67.1268 13.1749 68.0602 11.5029 68.1316C9.8308 68.203 3.49985 67.6268 3.49985 67.6268L-1.26384 64.9125" fill="#73CEC6"/>
<path d="M82.3819 72.9889C81.1719 71.8603 76.8703 70.6079 76.8703 70.6079L71.2015 73.4651C71.2015 73.4651 72.4734 76.0318 71.2301 76.9985C69.9868 77.9652 70.6823 79.1176 66.7808 78.2367C62.8794 77.3557 63.3319 76.0271 59.8068 77.7605C56.2817 79.4938 54.9431 78.4891 53.3472 83.1415C51.7514 87.794 50.9987 88.2178 50.7986 92.4132C50.5986 96.6085 56.8485 106.947 57.1439 107.852C57.4392 108.756 66.3378 109.033 66.3378 109.033C66.3378 109.033 73.5405 108.856 74.0455 108.556C74.5504 108.256 80.8671 108.528 79.8905 109.747C78.914 110.966 76.6655 115.385 76.6655 115.385L82.8583 115.642C82.8583 115.642 106.791 112.395 116.761 99.1419C116.761 99.1419 110.921 92.3179 110.369 91.4275C109.816 90.537 104.995 86.4178 103.318 86.3607C101.642 86.3035 95.2201 81.0748 94.4293 80.3272C93.6385 79.5796 92.4095 75.4366 92.4095 75.4366L82.4058 72.9842" fill="#73CEC6"/>
<path d="M97.5829 21.7538H97.5591C96.5266 21.7205 95.4933 21.7827 94.4723 21.9395C93.791 22.0729 93.1337 22.6062 92.4667 22.7491C90.747 23.1205 89.699 23.1634 89.7086 23.7586C89.7086 25.0539 92.481 25.1872 92.7573 25.2396C94.2342 25.4964 95.7314 25.6191 97.2304 25.6063H97.5972C98.993 25.6063 100.394 25.5349 101.789 25.411C101.265 24.3285 100.708 23.2713 100.117 22.2395C99.2788 22.1634 98.4404 21.7633 97.602 21.7633" fill="#5CB4C1"/>
<path d="M15.6616 98.1701C21.4058 104.084 28.2837 108.779 35.8842 111.974C43.4847 115.17 51.6518 116.802 59.8973 116.771C60.8024 116.771 61.7122 116.752 62.6269 116.713C71.3184 116.357 79.8385 114.182 87.6363 110.328C79.9602 114.044 71.6012 116.141 63.0794 116.49C62.1648 116.528 61.2549 116.547 60.3498 116.547C52.2376 116.576 44.2 114.998 36.7019 111.902C29.2039 108.807 22.3942 104.256 16.6668 98.513L15.6616 98.1701ZM97.0731 11.7871C102.925 16.0518 107.948 21.3502 111.893 27.4208C108.045 21.2744 103.006 15.9591 97.0731 11.7871Z" fill="#CDCDD7"/>
<path d="M16.667 98.5131C22.3944 104.256 29.2041 108.807 36.7022 111.902C44.2002 114.998 52.2378 116.576 60.3501 116.547C61.2552 116.547 62.165 116.528 63.0797 116.49C71.6015 116.141 79.9604 114.044 87.6365 110.328C84.3004 111.946 80.8246 113.259 77.2516 114.252C78.0346 112.697 78.9161 111.194 79.8907 109.751C80.6291 108.828 77.1611 108.456 75.2318 108.456C74.8334 108.431 74.4335 108.466 74.0457 108.561C73.5407 108.847 66.338 109.037 66.338 109.037C66.338 109.037 57.4442 108.761 57.1441 107.856C56.9726 107.328 54.7622 103.57 53.0092 99.7274C48.433 100.789 43.7687 101.427 39.0754 101.632C38.1608 101.67 37.2509 101.689 36.3506 101.689C33.712 101.697 31.0756 101.538 28.4571 101.213C30.0244 102.266 31.1153 102.547 32.5634 103.799C34.1688 105.185 33.8211 108.966 33.9925 109.566C34.0217 109.935 33.963 110.305 33.8211 110.647C27.4427 107.639 21.6391 103.541 16.6718 98.5369L16.667 98.5131ZM118.872 44.2975L116.967 45.4213C116.669 45.5927 116.424 45.8411 116.256 46.1403C116.089 46.4396 116.005 46.7785 116.014 47.1214C116.038 49.1881 116.1 53.312 116.219 53.7882C116.338 54.2644 116.862 58.1978 117.071 59.7693C117.126 60.1906 117.048 60.6184 116.847 60.9931L114.685 64.9885C114.543 65.2689 114.327 65.5055 114.061 65.6732C113.795 65.8409 113.489 65.9334 113.175 65.9409H112.589C110.94 65.9409 108.597 65.898 108.501 65.6456C108.406 65.3932 105.91 62.4646 105.091 61.5217C104.918 61.3234 104.788 61.0916 104.71 60.8407C104.529 60.2883 104.167 59.2169 103.757 58.2216C101.383 65.0677 97.6569 71.3671 92.8003 76.7459C93.2243 78.0221 93.896 79.846 94.4057 80.3222C95.2108 81.0698 101.618 86.2937 103.295 86.3556C104.824 86.408 108.959 89.8319 110.102 91.1177C117.379 80.8599 121.028 68.4702 120.473 55.9073C120.307 51.9955 119.771 48.1082 118.872 44.2975ZM80.8578 3.7251C84.8831 5.19656 89.4848 8.60141 93.653 13.2491L94.4295 12.6777C94.8574 12.0632 95.2258 11.4095 95.5299 10.7253C90.9859 7.75675 86.0661 5.40741 80.9006 3.73938" fill="#5880C6"/>
<path d="M95.5293 10.7252C95.2408 11.4193 94.8867 12.0842 94.4718 12.711L93.6953 13.2824C96.1501 16.0355 98.3103 19.0376 100.141 22.2398H100.236C100.511 22.2289 100.785 22.1955 101.055 22.1398C101.322 22.0833 101.593 22.0483 101.865 22.035H102.017C102.322 22.0826 105.457 22.235 105.471 23.5922C105.471 24.0684 104.752 24.5446 103.566 24.8732C103.204 24.9779 102.875 25.297 102.508 25.3494L101.822 25.416C104.514 30.9924 106.238 37.1878 106.238 43.5117C106.235 48.5208 105.414 53.4957 103.809 58.2406C104.204 59.2359 104.566 60.3074 104.761 60.8597C104.84 61.1106 104.97 61.3424 105.142 61.5407C105.962 62.4931 108.434 65.3503 108.553 65.6646C108.672 65.9789 110.992 65.9599 112.641 65.9599H113.226C113.541 65.9524 113.847 65.8599 114.113 65.6922C114.379 65.5245 114.595 65.2879 114.737 65.0075L116.899 61.0121C117.099 60.6374 117.178 60.2096 117.123 59.7883C116.914 58.2168 116.394 54.3215 116.27 53.8072C116.147 53.2929 116.089 49.188 116.066 47.1404C116.057 46.7975 116.14 46.4586 116.308 46.1593C116.476 45.8601 116.721 45.6117 117.018 45.4403L118.871 44.2974C117.478 38.3228 115.114 32.6169 111.874 27.4066C107.928 21.3359 102.906 16.0376 97.0537 11.7729C96.5392 11.411 96.0152 11.0586 95.4865 10.7109" fill="#5CA6A7"/>
<path d="M16.6669 98.5132C21.6342 103.517 27.4379 107.616 33.8162 110.623C33.9581 110.281 34.0169 109.911 33.9877 109.542C33.8305 108.942 34.1782 105.161 32.5585 103.775C31.1294 102.523 30.0195 102.242 28.4522 101.189C24.4443 100.684 20.4954 99.7877 16.6621 98.5132" fill="#5CA6A7"/>
<path d="M92.819 76.7554C82.8819 87.9652 68.4289 96.1511 53.0088 99.7131C54.7714 103.575 56.9722 107.332 57.1437 107.842C57.4438 108.747 66.3376 109.023 66.3376 109.023C66.3376 109.023 73.5403 108.847 74.0453 108.547C74.4331 108.452 74.833 108.416 75.2314 108.442C77.1607 108.442 80.6287 108.813 79.8903 109.737C78.9157 111.179 78.0342 112.683 77.2512 114.237C80.8242 113.245 84.3 111.932 87.6361 110.313C96.6118 105.88 104.34 99.2791 110.121 91.1081C108.977 89.8271 104.843 86.4032 103.313 86.3461C101.637 86.2842 95.2151 81.0602 94.4243 80.3126C93.9146 79.8364 93.2429 78.0125 92.819 76.7363" fill="#5CA6A7"/>
<path d="M101.842 22.035C101.569 22.0483 101.299 22.0833 101.032 22.1398C100.762 22.1955 100.488 22.229 100.212 22.2398H100.117C100.708 23.2716 101.265 24.3287 101.789 25.4113L102.475 25.3446C102.842 25.3065 103.171 24.9875 103.533 24.8684C104.728 24.5208 105.438 24.0732 105.438 23.5875C105.438 22.2303 102.289 22.0779 101.985 22.0303H101.832" fill="#4A91A3"/>
</g>
</svg>
